<svg width="48" height="48" viewBox="0 0 48 48" fill="none" xmlns="http://www.w3.org/2000/svg">
<g clip-path="url(#clip0_2801_1528)">
<path fill-rule="evenodd" clip-rule="evenodd" d="M0.101807 0.101562H47.979V47.9788H0.101807V0.101562ZM2.10639 2.03196V46.0485H45.9744V2.03196H2.10639Z" fill="white"/>
<path d="M11.7382 33.4057H9.604L17.8464 14.2949H19.7475L27.9408 33.4057H25.7821L23.6724 28.3824H13.8111L11.7382 33.4057ZM14.5469 26.6015H22.961L18.754 16.4565L14.5469 26.6015Z" fill="white"/>
<path d="M36.3179 22.3143H32.761V29.6835C32.761 30.1502 32.8101 30.5432 32.896 30.8379C32.9818 31.1449 33.1167 31.3783 33.2884 31.5503C33.4602 31.7223 33.6563 31.8328 33.8895 31.9064C34.1225 31.9679 34.38 32.0048 34.6499 32.0048C34.8953 32.0048 35.1651 31.9679 35.4472 31.8942C35.7293 31.8205 35.9869 31.7223 36.2444 31.5994L36.3302 33.1961C36.0114 33.3189 35.6679 33.4172 35.3246 33.4785C34.9688 33.54 34.5886 33.5769 34.1838 33.5769C33.8404 33.5769 33.4847 33.5278 33.1044 33.4417C32.7242 33.3558 32.3808 33.1838 32.0496 32.9259C31.7307 32.6679 31.4609 32.3364 31.2524 31.9064C31.0438 31.4767 30.9458 30.9117 30.9458 30.2116V22.3266H28.3333V20.7913H30.9458V17.2295H32.7733V20.7913H36.3302V22.3143H36.3179Z" fill="white"/>
</g>
<defs>
<clipPath id="clip0_2801_1528">
<rect width="48" height="48" fill="white"/>
</clipPath>
</defs>
</svg>
