<svg width="24" height="24" viewBox="0 0 24 24" fill="none" xmlns="http://www.w3.org/2000/svg">
<path d="M17 5L12 2L2 8V22H22V8L19.5 6.5M9.5 22L8.5 17.5H15.5L14.5 22M7 17.5H17M12 15C12.7471 15 13.3985 14.5904 13.7419 13.9835C13.8264 13.9944 13.9125 14 14 14C15.1046 14 16 13.1046 16 12C16 11.6357 15.9026 11.2942 15.7324 11C15.9026 10.7058 16 10.3643 16 10C16 8.89543 15.1046 8 14 8C13.9125 8 13.8264 8.00561 13.7419 8.0165C13.3985 7.40961 12.7471 7 12 7C11.2529 7 10.6015 7.40961 10.2581 8.0165C10.1736 8.00561 10.0875 8 10 8C8.89543 8 8 8.89543 8 10C8 10.3643 8.09739 10.7058 8.26756 11C8.09739 11.2942 8 11.6357 8 12C8 13.1046 8.89543 14 10 14C10.0875 14 10.1736 13.9944 10.2581 13.9835C10.6015 14.5904 11.2529 15 12 15ZM12 15V17.5M14 11C14 12.1046 13.1046 13 12 13C10.8954 13 10 12.1046 10 11C10 9.89543 10.8954 9 12 9C13.1046 9 14 9.89543 14 11Z" stroke="#D8BB89" stroke-width="1"/>
</svg>
