<svg width="24" height="24" viewBox="0 0 24 24" fill="none" xmlns="http://www.w3.org/2000/svg">
<path d="M14.0007 3.5C12.7471 2.55813 11.1887 2 9.5 2C5.35786 2 2 5.35786 2 9.5C2 13.6421 5.35786 17 9.5 17C13.6421 17 17 13.6421 17 9.5C17 8.23591 16.6873 7.04486 16.135 6M17.5 17.5L18.5 16.5L22.5 20.5L20.5 22.5L16.5 18.5L17.5 17.5ZM17.5 17.5L14.8097 14.8097M13 7L9.5 10.5L7.5 8.5M14 9.5C14 11.9853 11.9853 14 9.5 14C7.01472 14 5 11.9853 5 9.5C5 7.01472 7.01472 5 9.5 5C11.9853 5 14 7.01472 14 9.5Z" stroke="#D8BB89" stroke-width="1"/>
</svg>
