<svg width="24" height="24" viewBox="0 0 24 24" fill="none" xmlns="http://www.w3.org/2000/svg">
<path fill-rule="evenodd" clip-rule="evenodd" d="M1.30005 3.11111C1.30005 2.1134 2.11345 1.3 3.11116 1.3H7.00005C7.99776 1.3 8.81116 2.1134 8.81116 3.11111C8.81116 4.42491 9.0213 5.68414 9.40916 6.8582L9.41236 6.86788L9.41229 6.8679C9.60923 7.49452 9.46528 8.2025 8.96169 8.70609L6.88268 10.7851C7.42523 11.7719 8.07021 12.6953 8.8031 13.5418L7.74467 14.4582C6.82894 13.4005 6.0387 12.2314 5.39839 10.973L5.16788 10.52L5.5273 10.1606L7.97174 7.71614C8.0894 7.59848 8.12364 7.44142 8.07785 7.29138C7.64475 5.97826 7.41116 4.57287 7.41116 3.11111C7.41116 2.8866 7.22456 2.7 7.00005 2.7H3.11116C2.88665 2.7 2.70005 2.8866 2.70005 3.11111C2.70005 13.1578 10.8422 21.3 20.8889 21.3C21.1135 21.3 21.3 21.1134 21.3 20.8889V17.0111C21.3 16.7866 21.1134 16.6 20.8889 16.6C19.4364 16.6 18.0178 16.3658 16.7027 15.9313L16.6823 15.9246L16.6653 15.9178C16.6635 15.9173 16.6589 15.9163 16.6511 15.9152C16.6347 15.9129 16.6111 15.9111 16.5778 15.9111C16.4762 15.9111 16.3715 15.9478 16.2763 16.0359L13.8395 18.4728L13.479 18.8332L13.0253 18.6008C12.1685 18.1618 11.3521 17.6547 10.5838 17.0865L11.4163 15.9609C11.9885 16.384 12.5896 16.7703 13.2159 17.1164L15.294 15.0384L15.3003 15.032L15.3068 15.0258C15.6547 14.6953 16.1035 14.5111 16.5778 14.5111C16.7211 14.5111 16.9356 14.5234 17.1581 14.6074C18.3274 14.9917 19.592 15.2 20.8889 15.2C21.8867 15.2 22.7001 16.0134 22.7001 17.0111V20.8889C22.7001 21.8866 21.8867 22.7 20.8889 22.7C10.069 22.7 1.30005 13.931 1.30005 3.11111Z" fill="#D8BB89"/>
</svg>
