<svg width="48" height="48" viewBox="0 0 48 48" fill="none" xmlns="http://www.w3.org/2000/svg">
<path d="M36 36L38 34L44.5 40.5L40.5 44.5L34 38L36 36ZM36 36L32.6191 32.6191" stroke="#D8BB89" stroke-width="1.4"/>
<circle cx="20" cy="15" r="7" stroke="#D8BB89" stroke-width="1.4"/>
<path d="M6.73889 31.5C8.61295 25.9756 13.8422 22 20 22C26.1578 22 31.387 25.9756 33.2611 31.5" stroke="#D8BB89" stroke-width="1.4"/>
<path d="M37 21C37 30.3888 29.3888 38 20 38C10.6112 38 3 30.3888 3 21C3 11.6112 10.6112 4 20 4C29.3888 4 37 11.6112 37 21Z" stroke="#D8BB89" stroke-width="1.4"/>
<path d="M15 23L20 27M20 27V38M20 27L25 23" stroke="#D8BB89" stroke-width="1.4"/>
</svg>
