<svg width="48" height="48" viewBox="0 0 48 48" fill="none" xmlns="http://www.w3.org/2000/svg">
<path d="M35 9C31.6863 9 29 11.7982 29 15.25V19L26 23H44L41 19V15.25C41 11.7982 38.3137 9 35 9Z" stroke="#D8BB89" stroke-width="1.4" stroke-linejoin="bevel"/>
<path d="M38 23C38 24.6569 36.6569 26 35 26C33.3431 26 32 24.6569 32 23" stroke="#D8BB89" stroke-width="1.4"/>
<path d="M35 9V3" stroke="#D8BB89" stroke-width="1.4"/>
<path d="M41 19H33.5" stroke="#D8BB89" stroke-width="1.4"/>
<path d="M37.8228 30C36.6097 38.4807 29.3162 45 20.5 45C10.835 45 3 37.165 3 27.5C3 17.835 10.835 10 20.5 10C22.6078 10 24.6286 10.3726 26.5 11.0556" stroke="#D8BB89" stroke-width="1.4"/>
<circle cx="20.5" cy="27.5" r="2.5" stroke="#D8BB89" stroke-width="1.4"/>
<path d="M20.5 25V12" stroke="#D8BB89" stroke-width="1.4"/>
<path d="M13 34.5L18.5 29.5" stroke="#D8BB89" stroke-width="1.4"/>
</svg>
