<svg width="48" height="48" viewBox="0 0 48 48" fill="none" xmlns="http://www.w3.org/2000/svg">
<circle cx="24" cy="7" r="4" stroke="#D8BB89" stroke-width="1.4"/>
<path d="M30 40C30 36.6863 27.3137 34 24 34C20.6863 34 18 36.6863 18 40" stroke="#D8BB89" stroke-width="1.4"/>
<path d="M11 29.5C15.4183 29.5 19 26.366 19 22.5L3 22.5C3 26.366 6.58172 29.5 11 29.5Z" stroke="#D8BB89" stroke-width="1.4"/>
<path d="M37 22.5C41.4183 22.5 45 19.366 45 15.5L29 15.5C29 19.366 32.5817 22.5 37 22.5Z" stroke="#D8BB89" stroke-width="1.4"/>
<path d="M20.5 40H14V45H34V40H25.5" stroke="#D8BB89" stroke-width="1.4"/>
<path d="M10.5005 10.5003L20.1433 8.00034M37.5005 3.50034L27.8576 6.00034" stroke="#D8BB89" stroke-width="1.4"/>
<path d="M3 23L11 10L19 23" stroke="#D8BB89" stroke-width="1.4" stroke-linejoin="bevel"/>
<path d="M29 16L37 3L45 16" stroke="#D8BB89" stroke-width="1.4" stroke-linejoin="bevel"/>
<path d="M24 11V34" stroke="#D8BB89" stroke-width="1.4"/>
</svg>
