<svg width="24" height="24" viewBox="0 0 24 24" fill="none" xmlns="http://www.w3.org/2000/svg">
<g clip-path="url(#clip0_2474_1192)">
<path d="M3.92906 15.8284L14.5357 5.22182M3.92906 15.8284L2.51485 21.4853L8.1717 20.0711M3.92906 15.8284L8.1717 20.0711M14.5357 5.22182L18.7783 9.46446M14.5357 5.22182L17.3641 2.3934L21.6067 6.63604L18.7783 9.46446M18.7783 9.46446L8.1717 20.0711M16.657 7.34314L8.1717 15.8284M7.7607 3.5248L5.63938 5.64613M20.4886 16.2527L18.3673 18.374M9.88202 5.64612L8.4678 7.06034M18.3673 14.1314L16.9531 15.5456M12 7.75475L5.99621 1.75376L1.75732 5.99264L5.64829 9.88361M16.2472 12L22.2634 18.0135L18.0208 22.2561L12.0174 16.2527" stroke="#D8BB89" stroke-width="1"/>
</g>
<defs>
<clipPath id="clip0_2474_1192">
<rect width="24" height="24" fill="white"/>
</clipPath>
</defs>
</svg>
