<svg width="24" height="24" viewBox="0 0 24 24" fill="none" xmlns="http://www.w3.org/2000/svg">
<path fill-rule="evenodd" clip-rule="evenodd" d="M12 0C5.37258 0 0 5.37258 0 12C0 18.6274 5.37258 24 12 24C18.6274 24 24 18.6274 24 12C24 5.37258 18.6274 0 12 0ZM9.3616 5.63863C10.0443 5.60756 10.2624 5.59996 12.0006 5.59996H11.9986C13.7372 5.59996 13.9546 5.60756 14.6373 5.63863C15.3186 5.66983 15.7839 5.7777 16.1919 5.93597C16.6133 6.0993 16.9693 6.31797 17.3253 6.67397C17.6813 7.02971 17.9 7.38678 18.064 7.80772C18.2213 8.21466 18.3293 8.67973 18.3613 9.36107C18.392 10.0437 18.4 10.2619 18.4 12C18.4 13.7382 18.392 13.9558 18.3613 14.6385C18.3293 15.3195 18.2213 15.7847 18.064 16.1918C17.9 16.6126 17.6813 16.9697 17.3253 17.3254C16.9697 17.6814 16.6131 17.9006 16.1923 18.0641C15.7851 18.2224 15.3195 18.3302 14.6382 18.3614C13.9555 18.3925 13.738 18.4001 11.9998 18.4001C10.2617 18.4001 10.0437 18.3925 9.36107 18.3614C8.67986 18.3302 8.21466 18.2224 7.80745 18.0641C7.38678 17.9006 7.02971 17.6814 6.67411 17.3254C6.31824 16.9697 6.09957 16.6126 5.93597 16.1917C5.77783 15.7847 5.66996 15.3197 5.63863 14.6383C5.6077 13.9557 5.59996 13.7382 5.59996 12C5.59996 10.2619 5.60796 10.0436 5.6385 9.36094C5.66916 8.67986 5.77716 8.21466 5.93583 7.80759C6.09983 7.38678 6.3185 7.02971 6.67451 6.67397C7.03024 6.3181 7.38732 6.09943 7.80825 5.93597C8.21519 5.7777 8.68026 5.66983 9.3616 5.63863ZM14.649 8.58379C14.649 8.15965 14.993 7.81604 15.4171 7.81604V7.81578C15.8411 7.81578 16.1851 8.15978 16.1851 8.58379C16.1851 9.00779 15.8411 9.35179 15.4171 9.35179C14.993 9.35179 14.649 9.00779 14.649 8.58379ZM8.71399 12C8.71399 10.185 10.1855 8.7134 12.0006 8.71333C13.8156 8.71333 15.2869 10.1849 15.2869 12C15.2869 13.8151 13.8158 15.2861 12.0007 15.2861C10.1856 15.2861 8.71399 13.8151 8.71399 12ZM14.134 12.0001C14.134 10.8218 13.1788 9.86674 12.0006 9.86674C10.8223 9.86674 9.86726 10.8218 9.86726 12.0001C9.86726 13.1782 10.8223 14.1335 12.0006 14.1335C13.1788 14.1335 14.134 13.1782 14.134 12.0001Z" fill="#D8BB89"/>
</svg>
