<svg width="24" height="24" viewBox="0 0 24 24" fill="none" xmlns="http://www.w3.org/2000/svg">
<path fill-rule="evenodd" clip-rule="evenodd" d="M12 24C18.6274 24 24 18.6274 24 12C24 5.37258 18.6274 0 12 0C5.37258 0 0 5.37258 0 12C0 18.6274 5.37258 24 12 24ZM18.841 8.26694C19.3661 8.26694 19.4846 8.53793 19.3661 8.91055C19.1811 9.76452 17.6445 12.0298 17.1686 12.7314C17.0782 12.8647 17.0261 12.9416 17.0288 12.9416C16.8424 13.2465 16.7747 13.382 17.0288 13.7207C17.1206 13.846 17.3154 14.0371 17.5379 14.2555C17.7668 14.4801 18.0252 14.7336 18.2313 14.9741C18.9765 15.8209 19.5524 16.5323 19.7048 17.0235C19.8403 17.5146 19.6032 17.7687 19.0951 17.7687H17.3506C16.8882 17.7687 16.6499 17.5032 16.1421 16.9374C15.9243 16.6947 15.657 16.3969 15.3012 16.0411C14.268 15.0418 13.8107 14.9063 13.5566 14.9063C13.201 14.9063 13.0993 14.991 13.0993 15.4991V17.0743C13.0993 17.4977 12.9638 17.7518 11.846 17.7518C9.99982 17.7518 7.95042 16.6339 6.51076 14.5506C4.3428 11.5019 3.75 9.19848 3.75 8.74118C3.75 8.48712 3.83469 8.25 4.3428 8.25H6.10427C6.54464 8.25 6.71401 8.43631 6.88338 8.92749C7.74718 11.4173 9.18684 13.6021 9.77964 13.6021C9.99982 13.6021 10.1014 13.5005 10.1014 12.9416V10.3671C10.0596 9.63539 9.8049 9.31656 9.616 9.08014C9.49885 8.93351 9.40702 8.81858 9.40702 8.65649C9.40702 8.45325 9.57639 8.25 9.84739 8.25H12.5912C12.9638 8.25 13.0993 8.45325 13.0993 8.89361V12.3657C13.0993 12.7384 13.2518 12.8739 13.3703 12.8739C13.5905 12.8739 13.7768 12.7384 14.1833 12.3319C15.4367 10.9261 16.3343 8.75812 16.3343 8.75812C16.4529 8.50406 16.6561 8.26694 17.0965 8.26694H18.841Z" fill="#D8BB89"/>
</svg>
